<svg width="93" height="120" viewBox="0 0 93 120" fill="none" xmlns="http://www.w3.org/2000/svg">
<path fill-rule="evenodd" clip-rule="evenodd" d="M13.6204 14.5584C22.3407 5.23683 34.1681 0 46.5005 0C58.8329 0 70.6603 5.23683 79.3806 14.5584C88.101 23.8801 93 36.5229 93 49.7056C93 62.8884 88.101 75.5312 79.3806 84.8528L46.5005 120L13.6204 84.8528C9.30221 80.2374 5.87683 74.7579 3.53984 68.7274C1.20284 62.6968 0 56.2332 0 49.7056C0 43.1781 1.20284 36.7145 3.53984 30.6839C5.87683 24.6533 9.30221 19.1739 13.6204 14.5584V14.5584ZM46.5005 63.9065C50.0239 63.9065 53.4029 62.4103 55.8943 59.7472C58.3857 57.084 59.7854 53.4719 59.7854 49.7056C59.7854 45.9393 58.3857 42.3273 55.8943 39.6641C53.4029 37.0009 50.0239 35.5047 46.5005 35.5047C42.9771 35.5047 39.5981 37.0009 37.1067 39.6641C34.6153 42.3273 33.2156 45.9393 33.2156 49.7056C33.2156 53.4719 34.6153 57.084 37.1067 59.7472C39.5981 62.4103 42.9771 63.9065 46.5005 63.9065Z" fill="#FFAA28"/>
</svg>
