<svg width="90" height="85" viewBox="0 0 90 85" fill="none" xmlns="http://www.w3.org/2000/svg">
<path fill-rule="evenodd" clip-rule="evenodd" d="M45 0.499939C43.5082 0.499939 42.0774 1.09257 41.0225 2.14746C39.9676 3.20236 39.375 4.6331 39.375 6.12494V11.7499C39.375 13.2418 39.9676 14.6725 41.0225 15.7274C42.0774 16.7823 43.5082 17.3749 45 17.3749C46.4918 17.3749 47.9226 16.7823 48.9775 15.7274C50.0324 14.6725 50.625 13.2418 50.625 11.7499V6.12494C50.625 4.6331 50.0324 3.20236 48.9775 2.14746C47.9226 1.09257 46.4918 0.499939 45 0.499939V0.499939ZM11.25 11.7499H28.125C28.125 16.2255 29.9029 20.5177 33.0676 23.6824C36.2322 26.847 40.5245 28.6249 45 28.6249C49.4755 28.6249 53.7678 26.847 56.9324 23.6824C60.0971 20.5177 61.875 16.2255 61.875 11.7499H78.75C81.7337 11.7499 84.5952 12.9352 86.7049 15.045C88.8147 17.1548 90 20.0163 90 22.9999V73.6249C90 76.6086 88.8147 79.4701 86.7049 81.5799C84.5952 83.6897 81.7337 84.8749 78.75 84.8749H11.25C8.26631 84.8749 5.40483 83.6897 3.29505 81.5799C1.18526 79.4701 0 76.6086 0 73.6249V22.9999C0 20.0163 1.18526 17.1548 3.29505 15.045C5.40483 12.9352 8.26631 11.7499 11.25 11.7499V11.7499ZM25.3125 51.1249C27.5503 51.1249 29.6964 50.236 31.2787 48.6537C32.8611 47.0713 33.75 44.9252 33.75 42.6874C33.75 40.4497 32.8611 38.3036 31.2787 36.7212C29.6964 35.1389 27.5503 34.2499 25.3125 34.2499C23.0747 34.2499 20.9286 35.1389 19.3463 36.7212C17.7639 38.3036 16.875 40.4497 16.875 42.6874C16.875 44.9252 17.7639 47.0713 19.3463 48.6537C20.9286 50.236 23.0747 51.1249 25.3125 51.1249V51.1249ZM39.0937 73.6249C39.5085 71.5826 39.4641 69.4735 38.9637 67.4504C38.4634 65.4273 37.5196 63.5407 36.2007 61.9271C34.8818 60.3134 33.2207 59.0131 31.3377 58.1202C29.4546 57.2273 27.3966 56.764 25.3125 56.764C23.2284 56.764 21.1704 57.2273 19.2873 58.1202C17.4043 59.0131 15.7432 60.3134 14.4243 61.9271C13.1054 63.5407 12.1616 65.4273 11.6613 67.4504C11.1609 69.4735 11.1165 71.5826 11.5313 73.6249H39.0937ZM56.25 39.8749C54.7582 39.8749 53.3274 40.4676 52.2725 41.5225C51.2176 42.5774 50.625 44.0081 50.625 45.4999C50.625 46.9918 51.2176 48.4225 52.2725 49.4774C53.3274 50.5323 54.7582 51.1249 56.25 51.1249H73.125C74.6168 51.1249 76.0476 50.5323 77.1025 49.4774C78.1574 48.4225 78.75 46.9918 78.75 45.4999C78.75 44.0081 78.1574 42.5774 77.1025 41.5225C76.0476 40.4676 74.6168 39.8749 73.125 39.8749H56.25ZM50.625 62.3749C50.625 60.8831 51.2176 59.4524 52.2725 58.3975C53.3274 57.3426 54.7582 56.7499 56.25 56.7499H67.5C68.9918 56.7499 70.4226 57.3426 71.4775 58.3975C72.5324 59.4524 73.125 60.8831 73.125 62.3749C73.125 63.8668 72.5324 65.2975 71.4775 66.3524C70.4226 67.4073 68.9918 67.9999 67.5 67.9999H56.25C54.7582 67.9999 53.3274 67.4073 52.2725 66.3524C51.2176 65.2975 50.625 63.8668 50.625 62.3749Z" fill="#FFAA28"/>
</svg>
