<svg width="151" height="149" viewBox="0 0 151 149" fill="none" xmlns="http://www.w3.org/2000/svg">
<rect y="0.686279" width="151" height="148.039" fill="#0077FF"/>
<path d="M68.4016 50.2453H47.752C45.5614 50.2453 43.4605 51.1155 41.9114 52.6645C40.3624 54.2135 39.4922 56.3145 39.4922 58.5051V95.6743C39.4922 97.865 40.3624 99.9659 41.9114 101.515C43.4605 103.064 45.5614 103.934 47.752 103.934H105.571C107.761 103.934 109.862 103.064 111.411 101.515C112.96 99.9659 113.831 97.865 113.831 95.6743V58.5051C113.831 56.3145 112.96 54.2135 111.411 52.6645C109.862 51.1155 107.761 50.2453 105.571 50.2453H84.9212M68.4016 50.2453V46.1154C68.4016 43.9247 69.2718 41.8238 70.8208 40.2748C72.3699 38.7258 74.4708 37.8555 76.6614 37.8555C78.8521 37.8555 80.953 38.7258 82.502 40.2748C84.051 41.8238 84.9212 43.9247 84.9212 46.1154V50.2453M68.4016 50.2453C68.4016 52.4359 69.2718 54.5368 70.8208 56.0859C72.3699 57.6349 74.4708 58.5051 76.6614 58.5051C78.8521 58.5051 80.953 57.6349 82.502 56.0859C84.051 54.5368 84.9212 52.4359 84.9212 50.2453M64.2717 83.2846C66.4623 83.2846 68.5632 82.4144 70.1123 80.8653C71.6613 79.3163 72.5315 77.2154 72.5315 75.0248C72.5315 72.8341 71.6613 70.7332 70.1123 69.1842C68.5632 67.6352 66.4623 66.7649 64.2717 66.7649C62.081 66.7649 59.9801 67.6352 58.4311 69.1842C56.8821 70.7332 56.0118 72.8341 56.0118 75.0248C56.0118 77.2154 56.8821 79.3163 58.4311 80.8653C59.9801 82.4144 62.081 83.2846 64.2717 83.2846ZM64.2717 83.2846C69.6653 83.2846 74.2537 86.7331 75.9593 91.5444M64.2717 83.2846C61.7086 83.2839 59.2083 84.0778 57.1151 85.557C55.022 87.0363 53.439 89.1281 52.584 91.5444M89.0512 70.8948H101.441M89.0512 87.4145H97.311" stroke="white" stroke-width="3.71692" stroke-linecap="round" stroke-linejoin="round"/>
</svg>
