<svg width="51" height="48" viewBox="0 0 51 48" fill="none" xmlns="http://www.w3.org/2000/svg">
<path fill-rule="evenodd" clip-rule="evenodd" d="M42.4562 0.843431C42.9619 0.296116 43.6391 -0.00673219 44.3421 0.000113582C45.0451 0.00695935 45.7176 0.322952 46.2147 0.880032C46.7118 1.43711 46.9938 2.19071 46.9999 2.97851C47.006 3.76631 46.7358 4.52528 46.2474 5.09196L8.71109 47.1566C8.20542 47.7039 7.52815 48.0067 6.82516 47.9999C6.12217 47.993 5.4497 47.677 4.95259 47.12C4.45548 46.5629 4.1735 45.8093 4.16739 45.0215C4.16129 44.2337 4.43153 43.4747 4.91993 42.908L8.86928 38.4822C4.69329 34.7509 1.60525 29.7085 -6.50482e-07 24C3.4158 11.8103 13.5774 2.96769 25.5836 2.96769C29.7866 2.96131 33.9314 4.06695 37.6811 6.19465L42.4535 0.843431H42.4562ZM31.0318 13.6431L26.9725 18.1951C26.0633 17.9245 25.1067 17.9263 24.1984 18.2003C23.29 18.4742 22.4618 19.0108 21.7967 19.7562C21.1315 20.5016 20.6528 21.4297 20.4083 22.4476C20.1638 23.4655 20.1622 24.5376 20.4036 25.5564L16.3444 30.1054C15.1352 27.8099 14.6413 25.1291 14.9404 22.4847C15.2394 19.8403 16.3145 17.3823 17.9964 15.4975C19.6784 13.6126 21.8717 12.4079 24.2315 12.0727C26.5912 11.7376 28.9834 12.2911 31.0318 13.6461V13.6431Z" fill="#D9D9D9"/>
<path d="M19 44.0987L26.2131 36.0528C28.8068 35.8716 31.252 34.6411 33.0899 32.5924C34.9277 30.5436 36.0319 27.8173 36.1951 24.9253L45.993 14C48.2465 16.9924 49.9481 20.4514 51 24.1787C47.6015 36.2461 37.4888 45 25.5462 45C23.2868 45 21.094 44.6877 19 44.0987Z" fill="#D9D9D9"/>
</svg>
