<svg width="416" height="417" viewBox="0 0 416 417" fill="none" xmlns="http://www.w3.org/2000/svg">
<path fill-rule="evenodd" clip-rule="evenodd" d="M208 416.923C263.165 416.923 316.071 395.009 355.078 356.002C394.086 316.994 416 264.088 416 208.923C416 153.758 394.086 100.853 355.078 61.8451C316.071 22.8376 263.165 0.92334 208 0.92334C152.835 0.92334 99.9294 22.8376 60.9218 61.8451C21.9142 100.853 0 153.758 0 208.923C0 264.088 21.9142 316.994 60.9218 356.002C99.9294 395.009 152.835 416.923 208 416.923V416.923ZM304.382 175.305C309.118 170.402 311.739 163.834 311.68 157.017C311.62 150.2 308.886 143.679 304.065 138.858C299.245 134.037 292.724 131.303 285.906 131.244C279.089 131.185 272.522 133.805 267.618 138.541L182 224.159L148.382 190.541C143.478 185.805 136.911 183.185 130.094 183.244C123.276 183.303 116.755 186.037 111.935 190.858C107.114 195.679 104.38 202.2 104.32 209.017C104.261 215.834 106.882 222.402 111.618 227.305L163.618 279.305C168.494 284.18 175.106 286.918 182 286.918C188.894 286.918 195.506 284.18 200.382 279.305L304.382 175.305V175.305Z" fill="#FFAA28"/>
</svg>
