<svg width="93" height="93" viewBox="0 0 93 93" fill="none" xmlns="http://www.w3.org/2000/svg">
<path fill-rule="evenodd" clip-rule="evenodd" d="M46.4979 0.000976562C48.0395 0.000976563 49.5179 0.613358 50.608 1.7034C51.698 2.79345 52.3104 4.27187 52.3104 5.81343V13.5033L75.2928 22.6986L84.5869 18.0486C85.9666 17.3596 87.5636 17.2468 89.0264 17.7351C90.4893 18.2235 91.6982 19.2729 92.3873 20.6526C93.0763 22.0323 93.1891 23.6292 92.7008 25.0921C92.2124 26.5549 91.163 27.7639 89.7833 28.4529L82.6165 32.0334L92.7186 63.5369C93.0611 64.6055 93.0869 65.7505 92.7929 66.8334C92.499 67.9164 91.8978 68.8912 91.062 69.64C86.8024 73.4592 81.2812 75.5687 75.5602 75.5629C69.8392 75.5687 64.318 73.4592 60.0584 69.64C59.2226 68.8912 58.6214 67.9164 58.3275 66.8334C58.0335 65.7505 58.0594 64.6055 58.4019 63.5369L68.3702 32.4461L52.3104 26.0233V81.3753H63.9353C65.4769 81.3753 66.9553 81.9877 68.0453 83.0777C69.1354 84.1678 69.7478 85.6462 69.7478 87.1878C69.7478 88.7293 69.1354 90.2078 68.0453 91.2978C66.9553 92.3878 65.4769 93.0002 63.9353 93.0002H29.0606C27.519 93.0002 26.0406 92.3878 24.9506 91.2978C23.8605 90.2078 23.2481 88.7293 23.2481 87.1878C23.2481 85.6462 23.8605 84.1678 24.9506 83.0777C26.0406 81.9877 27.519 81.3753 29.0606 81.3753H40.6855V26.0233L24.6257 32.4461L34.594 63.5369C34.9365 64.6055 34.9624 65.7505 34.6684 66.8334C34.3745 67.9164 33.7733 68.8912 32.9375 69.64C28.6779 73.4592 23.1567 75.5687 17.4357 75.5629C11.7147 75.5687 6.19345 73.4592 1.93387 69.64C1.09808 68.8912 0.496916 67.9164 0.202963 66.8334C-0.0909901 65.7505 -0.0651632 64.6055 0.277324 63.5369L10.3794 32.0334L3.21261 28.4471C1.88314 27.7302 0.884962 26.5239 0.429515 25.0837C-0.0259326 23.6436 0.097125 22.0827 0.772621 20.7317C1.44812 19.3807 2.62299 18.3457 4.04839 17.846C5.47378 17.3463 7.03772 17.421 8.40894 18.0545L17.7031 22.6986L40.6855 13.5033V5.81343C40.6855 4.27187 41.2979 2.79345 42.3879 1.7034C43.478 0.613358 44.9564 0.000976563 46.4979 0.000976562V0.000976562ZM17.4357 48.0932L12.6811 62.9266C14.1342 63.5776 15.7384 63.938 17.4357 63.938C19.1329 63.938 20.743 63.5776 22.1903 62.9266L17.4357 48.0932ZM75.5602 48.0932L70.8056 62.9266C72.2587 63.5776 73.863 63.938 75.5602 63.938C77.2574 63.938 78.8675 63.5776 80.3148 62.9266L75.5602 48.0932Z" fill="#FFAA28"/>
</svg>
