<svg width="82" height="81" viewBox="0 0 82 81" fill="none" xmlns="http://www.w3.org/2000/svg">
<path d="M12.0714 -6.10352e-05C9.00249 -6.10352e-05 6.05926 1.21907 3.88919 3.38913C1.71913 5.55919 0.5 8.50243 0.5 11.5714V23.1428C0.5 26.2117 1.71913 29.155 3.88919 31.325C6.05926 33.4951 9.00249 34.7142 12.0714 34.7142H23.6429C26.7118 34.7142 29.655 33.4951 31.8251 31.325C33.9952 29.155 35.2143 26.2117 35.2143 23.1428V11.5714C35.2143 8.50243 33.9952 5.55919 31.8251 3.38913C29.655 1.21907 26.7118 -6.10352e-05 23.6429 -6.10352e-05H12.0714ZM12.0714 46.2857C9.00249 46.2857 6.05926 47.5048 3.88919 49.6748C1.71913 51.8449 0.5 54.7881 0.5 57.8571V69.4285C0.5 72.4974 1.71913 75.4407 3.88919 77.6107C6.05926 79.7808 9.00249 80.9999 12.0714 80.9999H23.6429C26.7118 80.9999 29.655 79.7808 31.8251 77.6107C33.9952 75.4407 35.2143 72.4974 35.2143 69.4285V57.8571C35.2143 54.7881 33.9952 51.8449 31.8251 49.6748C29.655 47.5048 26.7118 46.2857 23.6429 46.2857H12.0714ZM46.7857 11.5714C46.7857 8.50243 48.0048 5.55919 50.1749 3.38913C52.345 1.21907 55.2882 -6.10352e-05 58.3571 -6.10352e-05H69.9286C72.9975 -6.10352e-05 75.9407 1.21907 78.1108 3.38913C80.2809 5.55919 81.5 8.50243 81.5 11.5714V23.1428C81.5 26.2117 80.2809 29.155 78.1108 31.325C75.9407 33.4951 72.9975 34.7142 69.9286 34.7142H58.3571C55.2882 34.7142 52.345 33.4951 50.1749 31.325C48.0048 29.155 46.7857 26.2117 46.7857 23.1428V11.5714ZM46.7857 57.8571C46.7857 54.7881 48.0048 51.8449 50.1749 49.6748C52.345 47.5048 55.2882 46.2857 58.3571 46.2857H69.9286C72.9975 46.2857 75.9407 47.5048 78.1108 49.6748C80.2809 51.8449 81.5 54.7881 81.5 57.8571V69.4285C81.5 72.4974 80.2809 75.4407 78.1108 77.6107C75.9407 79.7808 72.9975 80.9999 69.9286 80.9999H58.3571C55.2882 80.9999 52.345 79.7808 50.1749 77.6107C48.0048 75.4407 46.7857 72.4974 46.7857 69.4285V57.8571Z" fill="#FFAA28"/>
</svg>
