<svg width="146" height="146" viewBox="0 0 146 146" fill="none" xmlns="http://www.w3.org/2000/svg">
<rect width="145.753" height="145.753" rx="72.8767" fill="#FFDBDB"/>
<path d="M66.8038 69.8403V88.0595M78.9499 69.8403V88.0595M48.5846 57.6942H97.1691M94.1325 57.6942L91.4999 94.5638C91.3908 96.0959 90.7052 97.5299 89.5811 98.5768C88.4571 99.6236 86.978 100.206 85.442 100.206H60.3117C58.7756 100.206 57.2966 99.6236 56.1725 98.5768C55.0485 97.5299 54.3629 96.0959 54.2538 94.5638L51.6211 57.6942H94.1325ZM81.9864 57.6942V48.5846C81.9864 47.7793 81.6665 47.0069 81.097 46.4375C80.5276 45.868 79.7552 45.5481 78.9499 45.5481H66.8038C65.9984 45.5481 65.2261 45.868 64.6566 46.4375C64.0872 47.0069 63.7672 47.7793 63.7672 48.5846V57.6942H81.9864Z" stroke="#F32D2D" stroke-width="7.28767" stroke-linecap="round" stroke-linejoin="round"/>
</svg>
