<svg width="31" height="41" viewBox="0 0 31 41" fill="none" xmlns="http://www.w3.org/2000/svg">
<path fill-rule="evenodd" clip-rule="evenodd" d="M5.125 0C3.76577 0 2.4622 0.539954 1.50108 1.50108C0.539954 2.4622 0 3.76577 0 5.125V35.875C0 37.2342 0.539954 38.5378 1.50108 39.4989C2.4622 40.46 3.76577 41 5.125 41H25.625C26.9842 41 28.2878 40.46 29.2489 39.4989C30.21 38.5378 30.75 37.2342 30.75 35.875V13.8734C30.7497 12.5143 30.2096 11.2109 29.2484 10.25L20.5 1.50162C19.5391 0.540434 18.2357 0.000290267 16.8766 0H5.125ZM17.9375 15.375C17.9375 14.6954 17.6675 14.0436 17.187 13.563C16.7064 13.0825 16.0546 12.8125 15.375 12.8125C14.6954 12.8125 14.0436 13.0825 13.563 13.563C13.0825 14.0436 12.8125 14.6954 12.8125 15.375V24.5641L9.49919 21.2508C9.2628 21.0061 8.98005 20.8108 8.66741 20.6766C8.35478 20.5423 8.01852 20.4716 7.67828 20.4686C7.33803 20.4657 7.0006 20.5305 6.68568 20.6593C6.37076 20.7882 6.08465 20.9785 5.84405 21.2191C5.60345 21.4597 5.41318 21.7458 5.28433 22.0607C5.15549 22.3756 5.09065 22.713 5.09361 23.0533C5.09656 23.3935 5.16725 23.7298 5.30155 24.0424C5.43585 24.355 5.63107 24.6378 5.87581 24.8742L13.5633 32.5617C14.0439 33.0421 14.6955 33.312 15.375 33.312C16.0545 33.312 16.7061 33.0421 17.1867 32.5617L24.8742 24.8742C25.341 24.3909 25.5993 23.7436 25.5934 23.0717C25.5876 22.3998 25.3181 21.7571 24.843 21.282C24.3679 20.8069 23.7252 20.5374 23.0533 20.5316C22.3814 20.5257 21.7341 20.784 21.2508 21.2508L17.9375 24.5641V15.375Z" fill="#FFAA28"/>
</svg>
