<svg width="47" height="47" viewBox="0 0 47 47" fill="none" xmlns="http://www.w3.org/2000/svg">
<path d="M45.2796 1.72018C44.1778 0.618748 42.6837 0 41.1258 0C39.568 0 38.0739 0.618748 36.9721 1.72018L14.6875 24.0048V32.3123H22.995L45.2796 10.0277C46.381 8.92593 46.9998 7.43182 46.9998 5.87393C46.9998 4.31604 46.381 2.82194 45.2796 1.72018Z" fill="white"/>
<path fill-rule="evenodd" clip-rule="evenodd" d="M0 11.7487C0 10.1905 0.618991 8.69615 1.7208 7.59434C2.82261 6.49253 4.31699 5.87354 5.87519 5.87354H17.6256C18.4047 5.87354 19.1519 6.18303 19.7028 6.73394C20.2537 7.28484 20.5632 8.03203 20.5632 8.81113C20.5632 9.59023 20.2537 10.3374 19.7028 10.8883C19.1519 11.4392 18.4047 11.7487 17.6256 11.7487H5.87519V41.1247H35.2511V29.3743C35.2511 28.5952 35.5606 27.848 36.1115 27.2971C36.6624 26.7462 37.4096 26.4367 38.1887 26.4367C38.9678 26.4367 39.715 26.7462 40.2659 27.2971C40.8168 27.848 41.1263 28.5952 41.1263 29.3743V41.1247C41.1263 42.6829 40.5073 44.1772 39.4055 45.2791C38.3037 46.3809 36.8093 46.9999 35.2511 46.9999H5.87519C4.31699 46.9999 2.82261 46.3809 1.7208 45.2791C0.618991 44.1772 0 42.6829 0 41.1247V11.7487Z" fill="white"/>
</svg>
