<svg width="97" height="97" viewBox="0 0 97 97" fill="none" xmlns="http://www.w3.org/2000/svg">
<path d="M40.7127 14.6182H14.4893C11.7074 14.6182 9.03939 15.7234 7.07225 17.6905C5.10512 19.6576 4 22.3256 4 25.1076V82.7989C4 85.5809 5.10512 88.2489 7.07225 90.216C9.03939 92.1831 11.7074 93.2882 14.4893 93.2882H72.1807C74.9626 93.2882 77.6306 92.1831 79.5977 90.216C81.5649 88.2489 82.67 85.5809 82.67 82.7989V56.5756M75.254 7.20227C76.2217 6.20043 77.3791 5.40133 78.6588 4.85159C79.9386 4.30186 81.315 4.0125 82.7078 4.0004C84.1005 3.98829 85.4818 4.25369 86.7709 4.7811C88.06 5.30852 89.2311 6.08738 90.216 7.07225C91.2008 8.05713 91.9797 9.22828 92.5071 10.5174C93.0345 11.8065 93.2999 13.1877 93.2878 14.5805C93.2757 15.9732 92.9864 17.3497 92.4366 18.6294C91.8869 19.9091 91.0878 21.0666 90.086 22.0342L45.0553 67.0649H30.2233V52.233L75.254 7.20227Z" stroke="#FFAA28" stroke-width="6.59765" stroke-linecap="round" stroke-linejoin="round"/>
</svg>
