<svg width="124" height="123" viewBox="0 0 124 123" fill="none" xmlns="http://www.w3.org/2000/svg">
<path d="M64.5382 0.621774C63.5812 0.211536 62.5509 0 61.5097 0C60.4685 0 59.4381 0.211536 58.4811 0.621774L4.67415 23.6819C3.28754 24.2726 2.10519 25.2579 1.27414 26.5152C0.443082 27.7726 0 29.2465 0 30.7537C0 32.2608 0.443082 33.7348 1.27414 34.9921C2.10519 36.2495 3.28754 37.2348 4.67415 37.8254L24.9978 46.5191C25.7522 45.6658 26.6869 44.991 27.7343 44.5436L58.4811 31.3686C59.4115 30.9539 60.4151 30.7283 61.4335 30.7049C62.4518 30.6814 63.4647 30.8606 64.4132 31.2321C65.3618 31.6035 66.227 32.1598 66.9586 32.8686C67.6903 33.5773 68.2737 34.4244 68.6751 35.3607C69.0765 36.2969 69.2878 37.3036 69.2967 38.3222C69.3057 39.3408 69.112 40.351 68.7271 41.2941C68.3422 42.2373 67.7737 43.0945 67.0545 43.8159C66.3354 44.5374 65.4801 45.1088 64.5382 45.4968L43.5766 54.4902L58.4888 60.8779C59.4447 61.287 60.4737 61.498 61.5135 61.498C62.5533 61.498 63.5823 61.287 64.5382 60.8779L118.345 37.8178C119.727 37.2249 120.905 36.2396 121.733 34.9839C122.56 33.7283 123.001 32.2575 123.001 30.7537C123.001 29.2498 122.56 27.779 121.733 26.5234C120.905 25.2678 119.727 24.2825 118.345 23.6896L64.5382 0.629462V0.621774ZM10.0856 56.8654L23.0761 62.4229V93.9538C20.4146 93.3486 17.7195 92.902 15.0051 92.6163C13.2536 92.4322 11.6185 91.6523 10.3732 90.407C9.1279 89.1617 8.34799 87.5266 8.16391 85.7751C7.15303 76.0969 7.80294 66.3171 10.0856 56.8577V56.8654ZM56.129 112.025C50.9329 106.927 44.9667 102.678 38.4495 99.4344V69.0181L52.424 75.0137C55.2949 76.2445 58.386 76.8791 61.5097 76.8791C64.6333 76.8791 67.7244 76.2445 70.5954 75.0137L112.934 56.8654C115.23 66.3227 115.88 76.1048 114.855 85.7828C114.671 87.5343 113.891 89.1694 112.646 90.4147C111.401 91.66 109.766 92.4399 108.014 92.624C92.5065 94.2538 78.0095 101.093 66.8904 112.025C65.4535 113.434 63.5217 114.223 61.5097 114.223C59.4976 114.223 57.5658 113.434 56.129 112.025V112.025ZM30.7628 122.994C32.8015 122.994 34.7566 122.184 36.1982 120.743C37.6397 119.301 38.4495 117.346 38.4495 115.307V99.4344C33.5608 97.0056 28.3999 95.1683 23.0761 93.9615V115.307C23.0761 117.346 23.886 119.301 25.3275 120.743C26.769 122.184 28.7242 122.994 30.7628 122.994Z" fill="#FFAA28"/>
</svg>
