<svg width="564" height="450" viewBox="0 0 564 450" fill="none" xmlns="http://www.w3.org/2000/svg">
<path d="M27 111.939L250.389 260.865C259.695 267.073 270.63 270.387 281.817 270.387C293.003 270.387 303.939 267.073 313.244 260.865L536.633 111.939M83.6259 423.381H480.007C495.025 423.381 509.428 417.415 520.048 406.796C530.667 396.177 536.633 381.774 536.633 366.755V83.6259C536.633 68.6078 530.667 54.2048 520.048 43.5853C509.428 32.9659 495.025 27 480.007 27H83.6259C68.6078 27 54.2048 32.9659 43.5853 43.5853C32.9659 54.2048 27 68.6078 27 83.6259V366.755C27 381.774 32.9659 396.177 43.5853 406.796C54.2048 417.415 68.6078 423.381 83.6259 423.381Z" stroke="#D9D9D9" stroke-width="53.1791" stroke-linecap="round" stroke-linejoin="round"/>
</svg>
