<svg width="102" height="96" viewBox="0 0 102 96" fill="none" xmlns="http://www.w3.org/2000/svg">
<rect width="102" height="96" rx="17.1053" fill="#4CD78B"/>
<path d="M75 51.5122C67.8512 54.3386 60.2111 55.787 52.5 55.7778C44.5425 55.7778 36.95 54.2622 30 51.5122M52.5 48.4444H52.525M62.5 33.7778V28.8889C62.5 27.5923 61.9732 26.3488 61.0355 25.4319C60.0979 24.5151 58.8261 24 57.5 24H47.5C46.1739 24 44.9021 24.5151 43.9645 25.4319C43.0268 26.3488 42.5 27.5923 42.5 28.8889V33.7778H62.5ZM35 68H70C71.3261 68 72.5979 67.4849 73.5355 66.5681C74.4732 65.6512 75 64.4077 75 63.1111V38.6667C75 37.3701 74.4732 36.1265 73.5355 35.2097C72.5979 34.2929 71.3261 33.7778 70 33.7778H35C33.6739 33.7778 32.4021 34.2929 31.4645 35.2097C30.5268 36.1265 30 37.3701 30 38.6667V63.1111C30 64.4077 30.5268 65.6512 31.4645 66.5681C32.4021 67.4849 33.6739 68 35 68Z" stroke="white" stroke-width="1.8125" stroke-linecap="round" stroke-linejoin="round"/>
</svg>
