<svg width="40" height="47" viewBox="0 0 40 47" fill="none" xmlns="http://www.w3.org/2000/svg">
<path fill-rule="evenodd" clip-rule="evenodd" d="M0 3.57199C0 2.81423 0.301019 2.0875 0.836838 1.55168C1.37266 1.01586 2.09938 0.714844 2.85714 0.714844H37.1429C37.9006 0.714844 38.6273 1.01586 39.1632 1.55168C39.699 2.0875 40 2.81423 40 3.57199V12.1434C39.9998 12.9011 39.6987 13.6277 39.1629 14.1634L25.7143 27.612V37.8577C25.7141 38.6154 25.413 39.342 24.8771 39.8777L19.1629 45.592C18.7633 45.9914 18.2542 46.2635 17.7001 46.3737C17.1459 46.4838 16.5716 46.4273 16.0496 46.2111C15.5276 45.9949 15.0814 45.6287 14.7674 45.159C14.4535 44.6893 14.2858 44.137 14.2857 43.572V27.612L0.837143 14.1634C0.301287 13.6277 0.000161821 12.9011 0 12.1434V3.57199Z" fill="#FFAA28"/>
</svg>
