<svg width="92" height="69" viewBox="0 0 92 69" fill="none" xmlns="http://www.w3.org/2000/svg">
<path d="M11.5 0C8.45001 0 5.52494 1.2116 3.36827 3.36827C1.2116 5.52494 0 8.45001 0 11.5V17.25H92V11.5C92 8.45001 90.7884 5.52494 88.6317 3.36827C86.4751 1.2116 83.55 0 80.5 0H11.5Z" fill="#FFAA28"/>
<path fill-rule="evenodd" clip-rule="evenodd" d="M92 28.75H0V57.5C0 60.55 1.2116 63.4751 3.36827 65.6317C5.52494 67.7884 8.45001 69 11.5 69H80.5C83.55 69 86.4751 67.7884 88.6317 65.6317C90.7884 63.4751 92 60.55 92 57.5V28.75ZM11.5 51.75C11.5 50.225 12.1058 48.7625 13.1841 47.6841C14.2625 46.6058 15.725 46 17.25 46H23C24.525 46 25.9875 46.6058 27.0659 47.6841C28.1442 48.7625 28.75 50.225 28.75 51.75C28.75 53.275 28.1442 54.7375 27.0659 55.8159C25.9875 56.8942 24.525 57.5 23 57.5H17.25C15.725 57.5 14.2625 56.8942 13.1841 55.8159C12.1058 54.7375 11.5 53.275 11.5 51.75ZM40.25 46C38.725 46 37.2625 46.6058 36.1841 47.6841C35.1058 48.7625 34.5 50.225 34.5 51.75C34.5 53.275 35.1058 54.7375 36.1841 55.8159C37.2625 56.8942 38.725 57.5 40.25 57.5H46C47.525 57.5 48.9875 56.8942 50.0659 55.8159C51.1442 54.7375 51.75 53.275 51.75 51.75C51.75 50.225 51.1442 48.7625 50.0659 47.6841C48.9875 46.6058 47.525 46 46 46H40.25Z" fill="#FFAA28"/>
</svg>
