<svg width="166" height="166" viewBox="0 0 166 166" fill="none" xmlns="http://www.w3.org/2000/svg">
<rect width="166" height="166" rx="16.6" fill="#F9A669"/>
<path d="M81.6621 95.7174V104.084M56.5613 120.818H106.763C108.982 120.818 111.11 119.937 112.679 118.368C114.248 116.799 115.13 114.67 115.13 112.451V87.3505C115.13 85.1314 114.248 83.0033 112.679 81.4342C111.11 79.8651 108.982 78.9836 106.763 78.9836H56.5613C54.3422 78.9836 52.2141 79.8651 50.645 81.4342C49.0758 83.0033 48.1943 85.1314 48.1943 87.3505V112.451C48.1943 114.67 49.0758 116.799 50.645 118.368C52.2141 119.937 54.3422 120.818 56.5613 120.818ZM98.396 78.9836V62.2497C98.396 57.8116 96.6329 53.5553 93.4947 50.417C90.3565 47.2788 86.1002 45.5158 81.6621 45.5158C77.224 45.5158 72.9677 47.2788 69.8294 50.417C66.6912 53.5553 64.9282 57.8116 64.9282 62.2497V78.9836H98.396Z" stroke="white" stroke-width="5.35484" stroke-linecap="round" stroke-linejoin="round"/>
</svg>
