<svg width="108" height="106" viewBox="0 0 108 106" fill="none" xmlns="http://www.w3.org/2000/svg">
<path fill-rule="evenodd" clip-rule="evenodd" d="M48.9487 -6.10352e-05C61.8116 -6.10352e-05 72.2766 10.4649 72.2766 23.3279V28.229C72.2766 30.4062 70.5097 32.1731 68.3325 32.1731C66.1554 32.1731 64.3885 30.4062 64.3885 28.229V23.3279C64.3885 14.8086 57.4626 7.8881 48.9487 7.8881H23.3122C14.8087 7.8881 7.88816 14.8086 7.88816 23.3279V81.8528C7.88816 90.3667 14.8087 97.2873 23.3122 97.2873H49.0065C57.4837 97.2873 64.3885 90.3878 64.3885 81.9106V76.9516C64.3885 74.7745 66.1554 73.0075 68.3325 73.0075C70.5097 73.0075 72.2766 74.7745 72.2766 76.9516V81.9106C72.2766 94.742 61.8327 105.175 49.0065 105.175H23.3122C10.4597 105.175 0 94.7157 0 81.8528V23.3279C0 10.4649 10.4597 -6.10352e-05 23.3122 -6.10352e-05H48.9487ZM91.4401 34.466L106.838 49.7953C106.975 49.9316 107.098 50.0733 107.211 50.2233L106.838 49.7953C107.024 49.979 107.19 50.1797 107.334 50.3938C107.397 50.4907 107.458 50.591 107.514 50.6941C107.56 50.7746 107.603 50.8587 107.642 50.9441C107.675 51.0196 107.707 51.0952 107.736 51.1719C107.776 51.2718 107.811 51.3746 107.841 51.4787C107.864 51.5607 107.885 51.6425 107.904 51.7253C107.927 51.8257 107.946 51.9268 107.96 52.0286C107.968 52.0948 107.977 52.1642 107.983 52.2341C107.995 52.354 108 52.4706 108 52.5877L107.973 52.9137L107.962 53.1226C107.961 53.1316 107.96 53.1405 107.959 53.1494L108 52.5877C108 52.8796 107.968 53.1687 107.905 53.4497C107.885 53.5329 107.864 53.6147 107.841 53.6955C107.811 53.8008 107.776 53.9036 107.737 54.0047C107.707 54.0802 107.675 54.1558 107.641 54.2301C107.603 54.3167 107.56 54.4008 107.515 54.4833C107.458 54.5844 107.397 54.6846 107.332 54.7819C107.295 54.8395 107.254 54.8964 107.212 54.9523C107.087 55.1171 106.951 55.272 106.803 55.4155L91.4401 70.7147C90.6723 71.4825 89.6627 71.8664 88.6582 71.8664C87.6485 71.8664 86.6336 71.4825 85.8658 70.7042C84.3303 69.1581 84.3355 66.6654 85.8763 65.1299L94.5002 56.5318H40.7334C38.5563 56.5318 36.7893 54.7648 36.7893 52.5877C36.7893 50.4106 38.5563 48.6436 40.7334 48.6436H94.5107L85.8763 40.0508C84.3355 38.5152 84.325 36.0225 85.8658 34.4765C87.4014 32.9304 89.894 32.9304 91.4401 34.466Z" fill="#8A8A8A"/>
</svg>
