<svg width="124" height="31" viewBox="0 0 124 31" fill="none" xmlns="http://www.w3.org/2000/svg">
<path d="M31 15.5C31 19.6109 29.367 23.5533 26.4602 26.4602C23.5533 29.367 19.6109 31 15.5 31C11.3891 31 7.44666 29.367 4.53984 26.4602C1.63303 23.5533 0 19.6109 0 15.5C0 11.3891 1.63303 7.44666 4.53984 4.53985C7.44666 1.63303 11.3891 0 15.5 0C19.6109 0 23.5533 1.63303 26.4602 4.53985C29.367 7.44666 31 11.3891 31 15.5ZM77.5 15.5C77.5 19.6109 75.867 23.5533 72.9602 26.4602C70.0533 29.367 66.1109 31 62 31C57.8891 31 53.9467 29.367 51.0398 26.4602C48.133 23.5533 46.5 19.6109 46.5 15.5C46.5 11.3891 48.133 7.44666 51.0398 4.53985C53.9467 1.63303 57.8891 0 62 0C66.1109 0 70.0533 1.63303 72.9602 4.53985C75.867 7.44666 77.5 11.3891 77.5 15.5V15.5ZM108.5 31C112.611 31 116.553 29.367 119.46 26.4602C122.367 23.5533 124 19.6109 124 15.5C124 11.3891 122.367 7.44666 119.46 4.53985C116.553 1.63303 112.611 0 108.5 0C104.389 0 100.447 1.63303 97.5398 4.53985C94.633 7.44666 93 11.3891 93 15.5C93 19.6109 94.633 23.5533 97.5398 26.4602C100.447 29.367 104.389 31 108.5 31Z" fill="#666666"/>
</svg>
