<svg width="58" height="43" viewBox="0 0 58 43" fill="none" xmlns="http://www.w3.org/2000/svg">
<path d="M28.8349 27.0457C30.4286 27.0457 31.957 26.4126 33.084 25.2856C34.2109 24.1587 34.844 22.6302 34.844 21.0365C34.844 19.4428 34.2109 17.9143 33.084 16.7874C31.957 15.6605 30.4286 15.0273 28.8349 15.0273C27.2411 15.0273 25.7127 15.6605 24.5857 16.7874C23.4588 17.9143 22.8257 19.4428 22.8257 21.0365C22.8257 22.6302 23.4588 24.1587 24.5857 25.2856C25.7127 26.4126 27.2411 27.0457 28.8349 27.0457Z" fill="#D9D9D9"/>
<path fill-rule="evenodd" clip-rule="evenodd" d="M0.165039 21.037C3.99288 8.84738 15.3803 0.00488281 28.8348 0.00488281C42.2893 0.00488281 53.6767 8.84738 57.5045 21.037C53.6767 33.2266 42.2893 42.0691 28.8348 42.0691C15.3803 42.0691 3.99288 33.2266 0.165039 21.037ZM40.8531 21.037C40.8531 24.2244 39.5869 27.2814 37.333 29.5352C35.0792 31.7891 32.0222 33.0553 28.8348 33.0553C25.6473 33.0553 22.5904 31.7891 20.3365 29.5352C18.0827 27.2814 16.8164 24.2244 16.8164 21.037C16.8164 17.8495 18.0827 14.7926 20.3365 12.5387C22.5904 10.2849 25.6473 9.01864 28.8348 9.01864C32.0222 9.01864 35.0792 10.2849 37.333 12.5387C39.5869 14.7926 40.8531 17.8495 40.8531 21.037Z" fill="#D9D9D9"/>
</svg>
