<svg width="323" height="359" viewBox="0 0 323 359" fill="none" xmlns="http://www.w3.org/2000/svg">
<path d="M161.389 233.083V268.931M53.8472 340.625H268.931C278.438 340.625 287.556 336.848 294.278 330.126C301.001 323.403 304.778 314.285 304.778 304.778V197.236C304.778 187.729 301.001 178.611 294.278 171.888C287.556 165.166 278.438 161.389 268.931 161.389H53.8472C44.3399 161.389 35.2221 165.166 28.4994 171.888C21.7767 178.611 18 187.729 18 197.236V304.778C18 314.285 21.7767 323.403 28.4994 330.126C35.2221 336.848 44.3399 340.625 53.8472 340.625ZM233.083 161.389V89.6944C233.083 70.6799 225.53 52.4441 212.085 38.9988C198.639 25.5535 180.403 18 161.389 18C142.374 18 124.139 25.5535 110.693 38.9988C97.2479 52.4441 89.6944 70.6799 89.6944 89.6944V161.389H233.083Z" stroke="#D9D9D9" stroke-width="35.8472" stroke-linecap="round" stroke-linejoin="round"/>
</svg>
