<svg width="70" height="90" viewBox="0 0 70 90" fill="none" xmlns="http://www.w3.org/2000/svg">
<path d="M68.7636 38.4385H41.1001C38.5846 38.4385 36.1721 37.4392 34.3934 35.6605C32.6147 33.8818 31.6154 31.4693 31.6154 28.9538V1.29033C31.6154 1.0807 31.5322 0.879664 31.3839 0.731438C31.2357 0.583212 31.0347 0.499939 30.8251 0.499939H12.6462C9.2922 0.499939 6.0756 1.8323 3.70398 4.20392C1.33236 6.57554 0 9.79214 0 13.1461V76.377C0 79.731 1.33236 82.9476 3.70398 85.3192C6.0756 87.6908 9.2922 89.0232 12.6462 89.0232H56.9078C60.2618 89.0232 63.4784 87.6908 65.85 85.3192C68.2216 82.9476 69.554 79.731 69.554 76.377V39.2289C69.554 39.0192 69.4707 38.8182 69.3225 38.67C69.1743 38.5217 68.9732 38.4385 68.7636 38.4385Z" fill="#FFAA28"/>
<path d="M67.0281 31.4466L38.6118 3.03021C38.5565 2.97527 38.4863 2.9379 38.4098 2.92279C38.3334 2.90767 38.2542 2.9155 38.1822 2.94527C38.1102 2.97505 38.0486 3.02544 38.0051 3.09013C37.9617 3.15481 37.9383 3.2309 37.938 3.30882V28.9588C37.938 29.7973 38.2711 30.6015 38.864 31.1944C39.4569 31.7873 40.261 32.1204 41.0995 32.1204H66.7495C66.8275 32.1201 66.9035 32.0967 66.9682 32.0533C67.0329 32.0098 67.0833 31.9482 67.1131 31.8762C67.1429 31.8042 67.1507 31.725 67.1356 31.6485C67.1205 31.5721 67.0831 31.5018 67.0281 31.4466V31.4466Z" fill="#FFAA28"/>
</svg>
