<svg width="187" height="189" viewBox="0 0 187 189" fill="none" xmlns="http://www.w3.org/2000/svg">
<path d="M101.776 4.1816C99.5807 1.98716 96.6039 0.754395 93.5 0.754395C90.3961 0.754395 87.4193 1.98716 85.2242 4.1816L3.28587 86.12C1.15362 88.3276 -0.0262275 91.2845 0.000442498 94.3536C0.0271125 97.4227 1.25817 100.359 3.42846 102.529C5.59875 104.699 8.53462 105.93 11.6038 105.957C14.6729 105.984 17.6297 104.804 19.8374 102.672L23.2671 99.2418V176.334C23.2671 179.439 24.5004 182.416 26.6956 184.611C28.8908 186.806 31.8681 188.04 34.9726 188.04H58.3836C61.488 188.04 64.4654 186.806 66.6606 184.611C68.8558 182.416 70.089 179.439 70.089 176.334V152.923C70.089 149.819 71.3223 146.841 73.5175 144.646C75.7127 142.451 78.69 141.218 81.7945 141.218H105.205C108.31 141.218 111.287 142.451 113.482 144.646C115.678 146.841 116.911 149.819 116.911 152.923V176.334C116.911 179.439 118.144 182.416 120.339 184.611C122.535 186.806 125.512 188.04 128.616 188.04H152.027C155.132 188.04 158.109 186.806 160.304 184.611C162.5 182.416 163.733 179.439 163.733 176.334V99.2418L167.163 102.672C169.37 104.804 172.327 105.984 175.396 105.957C178.465 105.93 181.401 104.699 183.572 102.529C185.742 100.359 186.973 97.4227 187 94.3536C187.026 91.2845 185.846 88.3276 183.714 86.12L101.776 4.1816V4.1816Z" fill="#FFAA28"/>
</svg>
