<svg width="114" height="122" viewBox="0 0 114 122" fill="none" xmlns="http://www.w3.org/2000/svg">
<path fill-rule="evenodd" clip-rule="evenodd" d="M56.9333 48.8C63.4046 48.8 69.6109 46.2293 74.1867 41.6534C78.7626 37.0775 81.3333 30.8713 81.3333 24.4C81.3333 17.9287 78.7626 11.7225 74.1867 7.1466C69.6109 2.57071 63.4046 0 56.9333 0C50.4621 0 44.2558 2.57071 39.6799 7.1466C35.104 11.7225 32.5333 17.9287 32.5333 24.4C32.5333 30.8713 35.104 37.0775 39.6799 41.6534C44.2558 46.2293 50.4621 48.8 56.9333 48.8V48.8ZM0 122C-1.1141e-07 114.523 1.47263 107.12 4.33379 100.213C7.19496 93.3051 11.3886 87.0288 16.6754 81.7421C21.9621 76.4553 28.2384 72.2616 35.1459 69.4005C42.0534 66.5393 49.4567 65.0667 56.9333 65.0667C64.4099 65.0667 71.8133 66.5393 78.7208 69.4005C85.6283 72.2616 91.9045 76.4553 97.1913 81.7421C102.478 87.0288 106.672 93.3051 109.533 100.213C112.394 107.12 113.867 114.523 113.867 122H0Z" fill="#FFAA28"/>
</svg>
