<svg width="83" height="89" viewBox="0 0 83 89" fill="none" xmlns="http://www.w3.org/2000/svg">
<path d="M56.2438 6.43763C52.3986 2.28613 47.0279 -6.10352e-05 41.1 -6.10352e-05C35.1405 -6.10352e-05 29.7521 2.2723 25.9246 6.39811C22.0557 10.5694 20.1706 16.2384 20.6132 22.36C21.4906 34.4371 30.6808 44.2616 41.1 44.2616C51.5193 44.2616 60.6937 34.439 61.5849 22.3639C62.0334 16.2977 60.1365 10.6405 56.2438 6.43763Z" fill="#FFAA28"/>
<path d="M75.8782 88.5187H6.32422C5.41382 88.5305 4.51223 88.3393 3.68505 87.9589C2.85786 87.5784 2.12589 87.0184 1.54238 86.3194C0.258006 84.7841 -0.259697 82.6876 0.12364 80.5674C1.79135 71.3159 6.99605 63.5445 15.1765 58.0888C22.4441 53.2457 31.6502 50.5802 41.1012 50.5802C50.5522 50.5802 59.7583 53.2477 67.0259 58.0888C75.2063 63.5425 80.411 71.314 82.0788 80.5654C82.4621 82.6856 81.9444 84.7821 80.66 86.3175C80.0767 87.0167 79.3448 87.5772 78.5176 87.958C77.6904 88.3387 76.7887 88.5303 75.8782 88.5187V88.5187Z" fill="#FFAA28"/>
</svg>
