<svg width="156" height="157" viewBox="0 0 156 157" fill="none" xmlns="http://www.w3.org/2000/svg">
<path fill-rule="evenodd" clip-rule="evenodd" d="M58.545 20.3223C48.1936 20.3223 38.2661 24.4342 30.9466 31.7534C23.6271 39.0726 19.515 48.9995 19.515 59.3504C19.515 69.7013 23.6271 79.6283 30.9466 86.9475C38.2661 94.2666 48.1936 98.3785 58.545 98.3785C68.8964 98.3785 78.8238 94.2666 86.1433 86.9475C93.4629 79.6283 97.5749 69.7013 97.5749 59.3504C97.5749 48.9995 93.4629 39.0726 86.1433 31.7534C78.8238 24.4342 68.8964 20.3223 58.545 20.3223ZM1.1071e-06 59.3504C-0.0011747 50.1369 2.17243 41.0532 6.34404 32.8381C10.5157 24.6229 16.5675 17.5084 24.0073 12.073C31.4471 6.63762 40.0649 3.03493 49.1597 1.55792C58.2545 0.0809098 67.5695 0.771291 76.3472 3.57291C85.1248 6.37454 93.1172 11.2083 99.6744 17.681C106.232 24.1538 111.168 32.0828 114.083 40.8231C116.998 49.5634 117.809 58.8683 116.449 67.981C115.09 77.0937 111.598 85.7568 106.259 93.2658L153.261 140.265C155.038 142.106 156.022 144.57 156 147.129C155.977 149.687 154.951 152.134 153.142 153.943C151.333 155.752 148.886 156.778 146.327 156.8C143.769 156.823 141.304 155.839 139.464 154.062L92.4718 107.072C83.7131 113.3 73.409 116.996 62.6887 117.757C51.9684 118.518 41.2456 116.313 31.6953 111.384C22.1449 106.456 14.1355 98.9935 8.54487 89.8153C2.95418 80.6371 -0.0020886 70.0971 1.1071e-06 59.3504V59.3504Z" fill="#FFAA28"/>
</svg>
