<svg width="151" height="149" viewBox="0 0 151 149" fill="none" xmlns="http://www.w3.org/2000/svg">
<rect y="0.317047" width="151" height="148.039" fill="#FFAA28"/>
<path d="M93.9393 100.209H112.088V92.9497C112.088 90.6867 111.383 88.4799 110.071 86.6361C108.758 84.7924 106.904 83.4033 104.766 82.662C102.628 81.9206 100.312 81.8639 98.1399 82.4996C95.968 83.1353 94.0481 84.4319 92.6471 86.2092M93.9393 100.209H57.6412M93.9393 100.209V92.9497C93.9393 90.5686 93.4819 88.2927 92.6471 86.2092M92.6471 86.2092C91.2991 82.8406 88.9728 79.9531 85.9682 77.9191C82.9636 75.8852 79.4186 74.7981 75.7903 74.7981C72.162 74.7981 68.6169 75.8852 65.6123 77.9191C62.6077 79.9531 60.2814 82.8406 58.9334 86.2092M57.6412 100.209H39.4922V92.9497C39.4924 90.6867 40.1976 88.4799 41.5099 86.6361C42.8221 84.7924 44.6762 83.4033 46.8144 82.662C48.9526 81.9206 51.2687 81.8639 53.4406 82.4996C55.6125 83.1353 57.5324 84.4319 58.9334 86.2092M57.6412 100.209V92.9497C57.6412 90.5686 58.0986 88.2927 58.9334 86.2092M86.6797 53.0218C86.6797 55.9099 85.5324 58.6797 83.4902 60.7218C81.4481 62.764 78.6783 63.9113 75.7903 63.9113C72.9022 63.9113 70.1324 62.764 68.0903 60.7218C66.0481 58.6797 64.9008 55.9099 64.9008 53.0218C64.9008 50.1338 66.0481 47.364 68.0903 45.3219C70.1324 43.2797 72.9022 42.1324 75.7903 42.1324C78.6783 42.1324 81.4481 43.2797 83.4902 45.3219C85.5324 47.364 86.6797 50.1338 86.6797 53.0218ZM108.459 63.9113C108.459 65.8366 107.694 67.6831 106.332 69.0446C104.971 70.406 103.124 71.1709 101.199 71.1709C99.2735 71.1709 97.427 70.406 96.0656 69.0446C94.7042 67.6831 93.9393 65.8366 93.9393 63.9113C93.9393 61.9859 94.7042 60.1394 96.0656 58.7779C97.427 57.4165 99.2735 56.6516 101.199 56.6516C103.124 56.6516 104.971 57.4165 106.332 58.7779C107.694 60.1394 108.459 61.9859 108.459 63.9113ZM57.6412 63.9113C57.6412 65.8366 56.8764 67.6831 55.5149 69.0446C54.1535 70.406 52.307 71.1709 50.3816 71.1709C48.4562 71.1709 46.6097 70.406 45.2483 69.0446C43.8868 67.6831 43.122 65.8366 43.122 63.9113C43.122 61.9859 43.8868 60.1394 45.2483 58.7779C46.6097 57.4165 48.4562 56.6516 50.3816 56.6516C52.307 56.6516 54.1535 57.4165 55.5149 58.7779C56.8764 60.1394 57.6412 61.9859 57.6412 63.9113Z" stroke="white" stroke-width="3.97787" stroke-linecap="round" stroke-linejoin="round"/>
</svg>
