<svg width="100" height="100" viewBox="0 0 100 100" fill="none" xmlns="http://www.w3.org/2000/svg">
<circle cx="50" cy="50" r="50" fill="#FFAA28"/>
<path d="M43.6929 60.3145V59.4459C43.7099 56.4655 43.9739 54.0897 44.4848 52.3184C45.0128 50.5472 45.7792 49.1166 46.784 48.0266C47.7888 46.9366 48.998 45.9489 50.4116 45.0632C51.4675 44.382 52.4128 43.6752 53.2473 42.9429C54.0818 42.2106 54.746 41.4016 55.2399 40.516C55.7338 39.6133 55.9807 38.6085 55.9807 37.5015C55.9807 36.3264 55.6997 35.296 55.1377 34.4104C54.5757 33.5248 53.8178 32.8435 52.8641 32.3667C51.9274 31.8898 50.8885 31.6513 49.7474 31.6513C48.6404 31.6513 47.593 31.8983 46.6052 32.3922C45.6174 32.8691 44.8084 33.5844 44.1783 34.5381C43.5481 35.4748 43.2075 36.6414 43.1564 38.038H32.7335C32.8186 34.6318 33.6361 31.8217 35.1859 29.6076C36.7357 27.3766 38.788 25.7161 41.3426 24.6261C43.8973 23.5191 46.7159 22.9656 49.7985 22.9656C53.1877 22.9656 56.1851 23.5276 58.7909 24.6516C61.3966 25.7586 63.4403 27.3681 64.922 29.4799C66.4037 31.5917 67.1445 34.1379 67.1445 37.1183C67.1445 39.1109 66.8124 40.8821 66.1482 42.432C65.5011 43.9647 64.5899 45.3272 63.4148 46.5194C62.2396 47.6945 60.8516 48.759 59.2507 49.7127C57.9052 50.5132 56.7982 51.3477 55.9297 52.2162C55.0781 53.0848 54.4394 54.0897 54.0137 55.2307C53.6049 56.3718 53.392 57.7769 53.375 59.4459V60.3145H43.6929ZM48.7511 76.6642C47.048 76.6642 45.5919 76.0681 44.3827 74.876C43.1905 73.6668 42.6029 72.2191 42.6199 70.5331C42.6029 68.864 43.1905 67.4334 44.3827 66.2413C45.5919 65.0491 47.048 64.453 48.7511 64.453C50.369 64.453 51.7911 65.0491 53.0174 66.2413C54.2436 67.4334 54.8652 68.864 54.8822 70.5331C54.8652 71.6571 54.5672 72.6875 53.9881 73.6242C53.4261 74.5439 52.6853 75.2847 51.7656 75.8467C50.8459 76.3917 49.8411 76.6642 48.7511 76.6642Z" fill="white"/>
</svg>
