<svg width="411" height="411" viewBox="0 0 411 411" fill="none" xmlns="http://www.w3.org/2000/svg">
<path fill-rule="evenodd" clip-rule="evenodd" d="M205.452 369.812C249.043 369.812 290.85 352.496 321.673 321.672C352.497 290.848 369.814 249.042 369.814 205.451C369.814 161.859 352.497 120.053 321.673 89.2293C290.85 58.4055 249.043 41.0889 205.452 41.0889C161.861 41.0889 120.055 58.4055 89.2308 89.2293C58.407 120.053 41.0904 161.859 41.0904 205.451C41.0904 249.042 58.407 290.848 89.2308 321.672C120.055 352.496 161.861 369.812 205.452 369.812V369.812ZM281.613 178.886C285.356 175.011 287.426 169.821 287.38 164.434C287.333 159.047 285.172 153.894 281.363 150.085C277.554 146.276 272.401 144.115 267.014 144.068C261.627 144.021 256.437 146.092 252.562 149.835L184.907 217.49L158.342 190.925C154.467 187.183 149.277 185.112 143.89 185.159C138.503 185.205 133.351 187.366 129.541 191.175C125.732 194.985 123.571 200.138 123.524 205.524C123.478 210.911 125.549 216.101 129.291 219.976L170.381 261.066C174.234 264.918 179.459 267.082 184.907 267.082C190.355 267.082 195.58 264.918 199.432 261.066L281.613 178.886V178.886Z" fill="#249F5D"/>
</svg>
