<svg width="40" height="28" viewBox="0 0 40 28" fill="none" xmlns="http://www.w3.org/2000/svg">
<path d="M17.2156 1.97736C14.5342 0.671823 11.5902 -0.00446326 8.60781 2.21669e-05C5.5213 2.21669e-05 2.59956 0.71324 0 1.97736V26.5711C2.68145 25.2656 5.62547 24.5894 8.60781 24.5938C12.7125 24.5938 16.5221 25.848 19.675 28C22.9363 25.7748 26.7941 24.5875 30.7422 24.5938C33.8287 24.5938 36.7504 25.307 39.35 26.5711V1.97736C36.6686 0.671823 33.7245 -0.00446326 30.7422 2.21669e-05C27.6557 2.21669e-05 24.7339 0.71324 22.1344 1.97736V19.675C22.1344 20.3273 21.8753 20.9528 21.414 21.4141C20.9528 21.8753 20.3273 22.1344 19.675 22.1344C19.0227 22.1344 18.3972 21.8753 17.936 21.4141C17.4747 20.9528 17.2156 20.3273 17.2156 19.675V1.97736Z" fill="white"/>
</svg>
