<?xml version="1.0" encoding="UTF-8"?>
<svg xmlns="http://www.w3.org/2000/svg" xmlns:xlink="http://www.w3.org/1999/xlink" viewBox="0 0 100 100" width="100px" height="100px">
<g id="surface79272818">
<path style=" stroke:none;fill-rule:nonzero;fill:rgb(79.607844%,61.960787%,87.058824%);fill-opacity:1;" d="M 13 27 C 11.894531 27 11 27.894531 11 29 C 11 30.105469 11.894531 31 13 31 C 14.105469 31 15 30.105469 15 29 C 15 27.894531 14.105469 27 13 27 Z M 13 27 "/>
<path style=" stroke:none;fill-rule:nonzero;fill:rgb(94.509804%,73.725492%,9.803922%);fill-opacity:1;" d="M 77 12 C 76.449219 12 76 12.449219 76 13 C 76 13.550781 76.449219 14 77 14 C 77.550781 14 78 13.550781 78 13 C 78 12.449219 77.550781 12 77 12 Z M 77 12 "/>
<path style=" stroke:none;fill-rule:nonzero;fill:rgb(98.823529%,87.843138%,63.529414%);fill-opacity:1;" d="M 50 13 C 29.566406 13 13 29.566406 13 50 C 13 70.433594 29.566406 87 50 87 C 70.433594 87 87 70.433594 87 50 C 87 29.566406 70.433594 13 50 13 Z M 50 13 "/>
<path style=" stroke:none;fill-rule:nonzero;fill:rgb(94.509804%,73.725492%,9.803922%);fill-opacity:1;" d="M 83 11 C 80.789062 11 79 12.789062 79 15 C 79 17.210938 80.789062 19 83 19 C 85.210938 19 87 17.210938 87 15 C 87 12.789062 85.210938 11 83 11 Z M 83 11 "/>
<path style=" stroke:none;fill-rule:nonzero;fill:rgb(79.607844%,61.960787%,87.058824%);fill-opacity:1;" d="M 87 22 C 85.894531 22 85 22.894531 85 24 C 85 25.105469 85.894531 26 87 26 C 88.105469 26 89 25.105469 89 24 C 89 22.894531 88.105469 22 87 22 Z M 87 22 "/>
<path style=" stroke:none;fill-rule:nonzero;fill:rgb(98.431373%,80.392158%,34.901962%);fill-opacity:1;" d="M 81 74 C 79.894531 74 79 74.894531 79 76 C 79 77.105469 79.894531 78 81 78 C 82.105469 78 83 77.105469 83 76 C 83 74.894531 82.105469 74 81 74 Z M 15 59 C 12.789062 59 11 60.789062 11 63 C 11 65.210938 12.789062 67 15 67 C 17.210938 67 19 65.210938 19 63 C 19 60.789062 17.210938 59 15 59 Z M 15 59 "/>
<path style=" stroke:none;fill-rule:nonzero;fill:rgb(79.607844%,61.960787%,87.058824%);fill-opacity:1;" d="M 25 85 C 23.894531 85 23 85.894531 23 87 C 23 88.105469 23.894531 89 25 89 C 26.105469 89 27 88.105469 27 87 C 27 85.894531 26.105469 85 25 85 Z M 25 85 "/>
<path style=" stroke:none;fill-rule:nonzero;fill:rgb(100%,100%,100%);fill-opacity:1;" d="M 18.5 51 C 17.121094 51 16 52.121094 16 53.5 C 16 54.878906 17.121094 56 18.5 56 C 19.878906 56 21 54.878906 21 53.5 C 21 52.121094 19.878906 51 18.5 51 Z M 18.5 51 "/>
<path style=" stroke:none;fill-rule:nonzero;fill:rgb(94.509804%,73.725492%,9.803922%);fill-opacity:1;" d="M 21 66 C 20.449219 66 20 66.449219 20 67 C 20 67.550781 20.449219 68 21 68 C 21.550781 68 22 67.550781 22 67 C 22 66.449219 21.550781 66 21 66 Z M 21 66 "/>
<path style=" stroke:none;fill-rule:nonzero;fill:rgb(100%,100%,100%);fill-opacity:1;" d="M 80 33 C 79.449219 33 79 33.449219 79 34 C 79 34.550781 79.449219 35 80 35 C 80.550781 35 81 34.550781 81 34 C 81 33.449219 80.550781 33 80 33 Z M 80 33 "/>
<path style=" stroke:none;fill-rule:nonzero;fill:rgb(94.509804%,76.862746%,5.882353%);fill-opacity:1;" d="M 72.398438 44 L 72.398438 64.398438 C 72.398438 68.699219 68.898438 72.199219 64.601562 72.199219 L 35.5 72.199219 C 31.199219 72.199219 27.699219 68.699219 27.699219 64.398438 L 27.699219 35.601562 C 27.699219 31.300781 31.199219 27.800781 35.5 27.800781 L 64.601562 27.800781 C 68.199219 27.800781 71.199219 30.199219 72.199219 33.601562 "/>
<path style=" stroke:none;fill-rule:nonzero;fill:rgb(100%,100%,100%);fill-opacity:1;" d="M 64.5 73 L 35.5 73 C 30.800781 73 27 69.199219 27 64.5 L 27 35.601562 C 27 30.898438 30.800781 27.101562 35.5 27.101562 L 64.601562 27.101562 C 68.398438 27.101562 71.800781 29.699219 72.800781 33.398438 C 72.898438 33.800781 72.699219 34.199219 72.300781 34.300781 C 71.898438 34.398438 71.5 34.199219 71.398438 33.800781 C 70.5 30.699219 67.699219 28.601562 64.5 28.601562 L 35.5 28.601562 C 31.601562 28.601562 28.398438 31.800781 28.398438 35.699219 L 28.398438 64.5 C 28.398438 68.398438 31.601562 71.601562 35.5 71.601562 L 64.601562 71.601562 C 68.5 71.601562 71.699219 68.398438 71.699219 64.5 L 71.699219 44 C 71.699219 43.601562 72 43.300781 72.398438 43.300781 C 72.800781 43.300781 73.101562 43.601562 73.101562 44 L 73.101562 64.398438 C 73.101562 69.101562 69.199219 73 64.5 73 Z M 64.5 73 "/>
<path style=" stroke:none;fill-rule:nonzero;fill:rgb(100%,100%,100%);fill-opacity:1;" d="M 68.5 59.398438 C 68.199219 59.398438 68 59.199219 68 58.898438 L 68 55 C 68 54.699219 68.199219 54.5 68.5 54.5 C 68.800781 54.5 69 54.699219 69 55 L 69 58.898438 C 69 59.199219 68.800781 59.398438 68.5 59.398438 Z M 68.5 52.5 C 68.199219 52.5 68 52.300781 68 52 L 68 50 C 68 49.699219 68.199219 49.5 68.5 49.5 C 68.800781 49.5 69 49.699219 69 50 L 69 52 C 69 52.300781 68.800781 52.5 68.5 52.5 Z M 68.5 52.5 "/>
<path style=" stroke:none;fill-rule:nonzero;fill:rgb(100%,100%,100%);fill-opacity:1;" d="M 64 69 L 36 69 C 33.199219 69 31 66.800781 31 64 L 31 36 C 31 33.199219 33.199219 31 36 31 L 61.398438 31 C 61.699219 31 61.898438 31.199219 61.898438 31.5 C 61.898438 31.800781 61.699219 32 61.398438 32 L 36 32 C 33.800781 32 32 33.800781 32 36 L 32 64 C 32 66.199219 33.800781 68 36 68 L 64 68 C 66.199219 68 68 66.199219 68 64 L 68 61.601562 C 68 61.300781 68.199219 61.101562 68.5 61.101562 C 68.800781 61.101562 69 61.300781 69 61.601562 L 69 64 C 69 66.800781 66.800781 69 64 69 Z M 64 69 "/>
<path style=" stroke:none;fill-rule:nonzero;fill:rgb(100%,100%,100%);fill-opacity:1;" d="M 49.5 62.5 L 49.398438 62.5 C 49.300781 62.5 49.300781 62.5 49.199219 62.5 C 48.800781 62.5 48.398438 62.398438 48.199219 62.101562 L 39.898438 53.898438 C 39.601562 53.601562 39.5 53.300781 39.5 52.898438 C 39.5 52.5 39.699219 52.101562 39.898438 51.898438 C 40.199219 51.601562 40.5 51.5 40.898438 51.5 C 41.300781 51.5 41.699219 51.699219 41.898438 51.898438 L 49 59.300781 L 73 36 C 73.300781 35.699219 73.601562 35.601562 74 35.601562 C 74.398438 35.601562 74.800781 35.800781 75 36 C 75.300781 36.300781 75.398438 36.601562 75.398438 37 C 75.398438 37.398438 75.199219 37.800781 75 38 L 50.601562 62.101562 C 50.5 62.199219 50.398438 62.300781 50.199219 62.398438 C 50.199219 62.398438 50.101562 62.398438 50.101562 62.5 C 50 62.5 49.898438 62.601562 49.800781 62.601562 C 49.699219 62.5 49.699219 62.5 49.5 62.5 Z M 49.5 62.5 "/>
<path style=" stroke:none;fill-rule:nonzero;fill:rgb(100%,100%,100%);fill-opacity:1;" d="M 74.199219 36 C 74.5 36 74.699219 36.101562 74.898438 36.300781 C 75.300781 36.699219 75.300781 37.300781 74.898438 37.699219 L 50.300781 61.699219 C 50.199219 61.800781 50.101562 61.800781 50 61.898438 L 49.898438 61.898438 C 49.800781 61.898438 49.800781 61.898438 49.699219 61.898438 L 49.601562 61.898438 C 49.5 61.898438 49.5 61.898438 49.5 61.898438 C 49.398438 61.898438 49.398438 61.898438 49.300781 61.898438 C 49.101562 61.898438 48.800781 61.800781 48.601562 61.601562 L 40.300781 53.398438 C 39.898438 53 39.898438 52.398438 40.300781 52 C 40.5 51.800781 40.699219 51.699219 41 51.699219 C 41.300781 51.699219 41.5 51.800781 41.699219 52 L 49.199219 59.800781 L 73.601562 36.199219 C 73.699219 36.101562 73.898438 36 74.199219 36 M 74.199219 35 C 73.699219 35 73.199219 35.199219 72.800781 35.601562 L 49.199219 58.5 L 42.398438 51.398438 C 42 51 41.5 50.800781 41 50.800781 C 40.5 50.800781 40 51 39.601562 51.398438 C 39.199219 51.800781 39 52.300781 39 52.800781 C 39 53.300781 39.199219 53.800781 39.601562 54.199219 L 47.898438 62.398438 C 48.300781 62.800781 48.699219 63 49.300781 63 L 49.398438 63 C 49.5 63 49.5 63 49.601562 63 C 49.699219 63 49.898438 63 49.898438 63 C 50 63 50.101562 63 50.199219 62.898438 C 50.300781 62.898438 50.398438 62.800781 50.398438 62.800781 C 50.601562 62.699219 50.800781 62.601562 50.898438 62.398438 L 75.5 38.398438 C 75.898438 38 76.101562 37.5 76.101562 37 C 76.101562 36.5 75.898438 36 75.5 35.601562 C 75.199219 35.199219 74.699219 35 74.199219 35 Z M 74.199219 35 "/>
</g>
</svg>
