<svg width="96" height="86" viewBox="0 0 96 86" fill="none" xmlns="http://www.w3.org/2000/svg">
<path d="M7.78312 22.0364C6.00112 23.8184 5 26.2353 5 28.7555V71.5153C5 74.0354 6.00112 76.4523 7.78312 78.2343C9.56513 80.0163 11.982 81.0174 14.5022 81.0174H81.0174C83.5376 81.0174 85.9545 80.0163 87.7365 78.2343C89.5185 76.4523 90.5196 74.0354 90.5196 71.5153V28.7555C90.5196 26.2353 89.5185 23.8184 87.7365 22.0364C85.9545 20.2544 83.5376 19.2533 81.0174 19.2533H76.5989C75.0349 19.2535 73.4951 18.8677 72.116 18.1301C70.7368 17.3924 69.5611 16.3258 68.6931 15.0248L64.8352 9.22847C63.9672 7.92747 62.7915 6.86083 61.4124 6.12321C60.0333 5.38558 58.4934 4.99977 56.9294 5H38.5902C37.0262 4.99977 35.4864 5.38558 34.1072 6.12321C32.7281 6.86083 31.5524 7.92747 30.6844 9.22847L26.8265 15.0248C25.9585 16.3258 24.7828 17.3924 23.4037 18.1301C22.0245 18.8677 20.4847 19.2535 18.9207 19.2533H14.5022C11.982 19.2533 9.56513 20.2544 7.78312 22.0364Z" stroke="white" stroke-width="9.50218" stroke-linecap="round" stroke-linejoin="round"/>
<path d="M57.8487 57.8309C60.5217 55.1579 62.0234 51.5325 62.0234 47.7523C62.0234 43.9721 60.5217 40.3467 57.8487 37.6737C55.1757 35.0007 51.5503 33.499 47.7701 33.499C43.9899 33.499 40.3645 35.0007 37.6915 37.6737C35.0185 40.3467 33.5168 43.9721 33.5168 47.7523C33.5168 51.5325 35.0185 55.1579 37.6915 57.8309C40.3645 60.5039 43.9899 62.0056 47.7701 62.0056C51.5503 62.0056 55.1757 60.5039 57.8487 57.8309Z" stroke="white" stroke-width="9.50218" stroke-linecap="round" stroke-linejoin="round"/>
</svg>
