<svg width="174" height="173" viewBox="0 0 174 173" fill="none" xmlns="http://www.w3.org/2000/svg">
<path fill-rule="evenodd" clip-rule="evenodd" d="M43.251 43.251V32.4382C43.251 23.8351 46.6686 15.5843 52.7519 9.50094C58.8353 3.41759 67.0861 0 75.6892 0H97.3147C105.918 0 114.169 3.41759 120.252 9.50094C126.335 15.5843 129.753 23.8351 129.753 32.4382V43.251H151.378C157.114 43.251 162.614 45.5294 166.67 49.585C170.726 53.6405 173.004 59.1411 173.004 64.8765V103.478C145.319 113.736 116.026 118.973 86.502 118.94C56.9778 118.973 27.6846 113.737 0 103.478V64.8765C0 59.1411 2.27839 53.6405 6.33396 49.585C10.3895 45.5294 15.8901 43.251 21.6255 43.251H43.251ZM64.8765 32.4382C64.8765 29.5705 66.0157 26.8203 68.0435 24.7925C70.0713 22.7647 72.8215 21.6255 75.6892 21.6255H97.3147C100.182 21.6255 102.933 22.7647 104.961 24.7925C106.988 26.8203 108.127 29.5705 108.127 32.4382V43.251H64.8765V32.4382ZM75.6892 86.502C75.6892 83.6343 76.8284 80.884 78.8562 78.8562C80.884 76.8284 83.6343 75.6892 86.502 75.6892H86.6101C89.4778 75.6892 92.2281 76.8284 94.2559 78.8562C96.2837 80.884 97.4229 83.6343 97.4229 86.502C97.4229 89.3697 96.2837 92.12 94.2559 94.1478C92.2281 96.1755 89.4778 97.3147 86.6101 97.3147H86.502C83.6343 97.3147 80.884 96.1755 78.8562 94.1478C76.8284 92.12 75.6892 89.3697 75.6892 86.502Z" fill="#FFAA28"/>
<path d="M0 126.418V151.374C0 157.109 2.27839 162.61 6.33396 166.665C10.3895 170.721 15.8901 172.999 21.6255 172.999H151.378C157.114 172.999 162.614 170.721 166.67 166.665C170.726 162.61 173.004 157.109 173.004 151.374V126.418C145.133 135.812 115.914 140.589 86.502 140.561C56.2695 140.561 27.1724 135.587 0 126.418Z" fill="#FFAA28"/>
</svg>
