<svg width="287" height="359" viewBox="0 0 287 359" fill="none" xmlns="http://www.w3.org/2000/svg">
<path d="M194.21 140.424C207.659 126.975 215.214 108.734 215.214 89.7143C215.214 70.6945 207.659 52.4537 194.21 39.0046C180.761 25.5556 162.52 18 143.5 18C124.48 18 106.239 25.5556 92.7903 39.0046C79.3413 52.4537 71.7857 70.6945 71.7857 89.7143C71.7857 108.734 79.3413 126.975 92.7903 140.424C106.239 153.873 124.48 161.429 143.5 161.429C162.52 161.429 180.761 153.873 194.21 140.424Z" stroke="#D9D9D9" stroke-width="35.8571" stroke-linecap="round" stroke-linejoin="round"/>
<path d="M54.7581 251.972C78.2939 228.437 110.215 215.214 143.5 215.214C176.785 215.214 208.706 228.437 232.242 251.972C255.778 275.508 269 307.43 269 340.714H18C18 307.43 31.2223 275.508 54.7581 251.972Z" stroke="#D9D9D9" stroke-width="35.8571" stroke-linecap="round" stroke-linejoin="round"/>
</svg>
